<svg xmlns="http://www.w3.org/2000/svg" version="1.1" width="3300" height="2000"><g id="Notes"><style>
    text {
      font-family: monospace;
      text-anchor: middle;
    }
    text.emphasis {
      font-weight:bold;
    }
    text.lanchor {
      text-anchor: start;
    }
  </style><rect height="2200" id="artboard" fill="white" width="3300" x="0" y="0"/><line id="" style="fill:none;stroke:black;stroke-width:0.5;" x1="263" x2="3036" y1="292" y2="292"/><text class="lanchor emphasis" transform="matrix(1 0 0 1 263 322)">Weight/Scale Variations</text><text transform="matrix(1 0 0 1 559.711 322)">Ultralight</text><text transform="matrix(1 0 0 1 856.422 322)">Thin</text><text transform="matrix(1 0 0 1 1153.13 322)">Light</text><text transform="matrix(1 0 0 1 1449.84 322)">Regular</text><text transform="matrix(1 0 0 1 1746.56 322)">Medium</text><text transform="matrix(1 0 0 1 2043.27 322)">Semibold</text><text transform="matrix(1 0 0 1 2339.98 322)">Bold</text><text transform="matrix(1 0 0 1 2636.69 322)">Heavy</text><text transform="matrix(1 0 0 1 2933.4 322)">Black</text><text id="template-version" style="text-anchor: end;" transform="matrix(1 0 0 1 3036 1933)">Template v.1.0</text><text class="lanchor" transform="matrix(1 0 0 1 263 726)">Small</text><text class="lanchor" transform="matrix(1 0 0 1 263 1156)">Medium</text><text class="lanchor" transform="matrix(1 0 0 1 263 1586)">Large</text></g><g id="Guides"><g id="H-reference" style="fill:#27AAE1;stroke:none;" transform="matrix(1 0 0 1 339 696)"><path d="M 54.9316 0 L 57.666 0 L 30.5664 -70.459 L 28.0762 -70.459 L 0.976562 0 L 3.66211 0 L 12.9395 -24.4629 L 45.7031 -24.4629 Z M 29.1992 -67.0898 L 29.4434 -67.0898 L 44.8242 -26.709 L 13.8184 -26.709 Z"/></g><line id="Baseline-S" style="fill:none;stroke:#27AAE1;opacity:1;stroke-width:0.577;" x1="263" x2="3036" y1="696" y2="696"/><line id="Capline-S" style="fill:none;stroke:#27AAE1;opacity:1;stroke-width:0.577;" x1="263" x2="3036" y1="625.541" y2="625.541"/><g id="H-reference" style="fill:#27AAE1;stroke:none;" transform="matrix(1 0 0 1 339 1126)"><path d="M 54.9316 0 L 57.666 0 L 30.5664 -70.459 L 28.0762 -70.459 L 0.976562 0 L 3.66211 0 L 12.9395 -24.4629 L 45.7031 -24.4629 Z M 29.1992 -67.0898 L 29.4434 -67.0898 L 44.8242 -26.709 L 13.8184 -26.709 Z"/></g><line id="Baseline-M" style="fill:none;stroke:#27AAE1;opacity:1;stroke-width:0.577;" x1="263" x2="3036" y1="1126" y2="1126"/><line id="Capline-M" style="fill:none;stroke:#27AAE1;opacity:1;stroke-width:0.577;" x1="263" x2="3036" y1="1055.54" y2="1055.54"/><g id="H-reference" style="fill:#27AAE1;stroke:none;" transform="matrix(1 0 0 1 339 1556)"><path d="M 54.9316 0 L 57.666 0 L 30.5664 -70.459 L 28.0762 -70.459 L 0.976562 0 L 3.66211 0 L 12.9395 -24.4629 L 45.7031 -24.4629 Z M 29.1992 -67.0898 L 29.4434 -67.0898 L 44.8242 -26.709 L 13.8184 -26.709 Z"/></g><line id="Baseline-L" style="fill:none;stroke:#27AAE1;opacity:1;stroke-width:0.577;" x1="263" x2="3036" y1="1556" y2="1556"/><line id="Capline-L" style="fill:none;stroke:#27AAE1;opacity:1;stroke-width:0.577;" x1="263" x2="3036" y1="1485.54" y2="1485.54"/><rect height="119.336" id="left-margin" style="fill:darkred;stroke:none;opacity:0.4;" width="12.4512" x="1394.06" y="1030.79"/><rect height="119.336" id="right-margin" style="fill:darkgreen;stroke:none;opacity:0.4;" width="12.4512" x="1502.5112" y="1030.79"/><rect x="1406.5112" y="1045" width="96" height="96" fill="none" stroke="blue" stroke-dasharray="5"/><rect x="1394.06" y="1030.79" width="120.9024" height="119.336" fill="none" stroke="blue"/></g><g id="Symbols"><g id="Bold-L" transform="matrix(1 0 0 1 2266 1556)"><path d="M81.10875 -14.58999999999999 Q87.72 -14.58999999999999 92.39625000000001 -19.07919999999998 Q97.0725 -23.568399999999983 97.0725 -30.069999999999993 V-69.99549999999999 H115.7775 V-79.73499999999999 H90.6225 V-42.486249999999984 Q89.01 -43.937499999999986 86.45918625 -44.74374999999999 Q83.9083725 -45.54999999999998 81.10875 -45.54999999999998 Q74.810325 -45.54999999999998 70.46141250000001 -41.13723249999998 Q66.1125 -36.72446499999998 66.1125 -30.333482499999988 Q66.1125 -23.94249999999998 70.46141250000001 -19.266249999999985 Q74.810325 -14.58999999999999 81.10875 -14.58999999999999 Z M46.1175 11.210000000000015 Q39.8206875 11.210000000000015 35.39034375 6.779656250000016 Q30.96 2.3493125000000177 30.96 -3.947499999999984 V-91.345 Q30.96 -97.70840874999999 35.39034375 -102.18599874999998 Q39.8206875 -106.66375 46.1175 -106.66375 H133.51500000000001 Q139.87840875 -106.66375 144.35599875 -102.18599874999998 Q148.83375 -97.70840874999999 148.83375 -91.345 V-3.947499999999984 Q148.83375 2.3493125000000177 144.35599875 6.779656250000016 Q139.87840875 11.210000000000015 133.51500000000001 11.210000000000015 H46.1175 Z M46.1175 -3.947499999999984 H133.51500000000001 Q133.51500000000001 -3.947499999999984 133.51500000000001 -3.947499999999984 Q133.51500000000001 -3.947499999999984 133.51500000000001 -3.947499999999984 V-91.345 Q133.51500000000001 -91.345 133.51500000000001 -91.345 Q133.51500000000001 -91.345 133.51500000000001 -91.345 H46.1175 Q46.1175 -91.345 46.1175 -91.345 Q46.1175 -91.345 46.1175 -91.345 V-3.947499999999984 Q46.1175 -3.947499999999984 46.1175 -3.947499999999984 Q46.1175 -3.947499999999984 46.1175 -3.947499999999984 Z M21.285 36.203750000000014 Q14.92159125 36.203750000000014 10.444001250000001 31.725998750000016 Q5.9662500000000005 27.248408750000017 5.9662500000000005 20.885000000000016 V-81.66999999999999 H21.285 V20.885000000000016 Q21.285 20.885000000000016 21.285 20.885000000000016 Q21.285 20.885000000000016 21.285 20.885000000000016 H123.84 V36.203750000000014 H21.285 Z"/></g><g id="Semibold-L" transform="matrix(1 0 0 1 1970.27 1556)"><path d="M79.91695125 -13.258074999999984 Q86.52820125000001 -13.258074999999984 91.20445125 -17.787909999999982 Q95.88070125000002 -22.317744999999988 95.88070125000002 -28.87820124999999 V-69.11217249999999 H114.58570125000001 V-78.82361499999998 H89.43070125000001 V-41.154324999999986 Q87.7480575 -42.60557499999999 85.23239625 -43.41182499999999 Q82.71657375000001 -44.218074999999985 79.91695125 -44.218074999999985 Q73.61852625 -44.218074999999985 69.26961375 -39.80514624999998 Q64.92070125 -35.39237874999999 64.92070125 -29.001396249999985 Q64.92070125 -22.610574999999983 69.26961375 -17.934324999999987 Q73.61852625 -13.258074999999984 79.91695125 -13.258074999999984 Z M44.29473000000001 10.649172500000013 Q39.05297625 10.649172500000013 35.2869825 6.883017500000015 Q31.520827500000003 3.1170237500000155 31.520827500000003 -2.1247299999999925 V-90.78417249999998 Q31.520827500000003 -96.06349749999998 35.2869825 -99.85641999999999 Q39.05297625 -103.64934249999999 44.29473000000001 -103.64934249999999 H132.9541725 Q138.2334975 -103.64934249999999 142.02642 -99.85641999999999 Q145.8193425 -96.06349749999998 145.8193425 -90.78417249999998 V-2.1247299999999925 Q145.8193425 3.1170237500000155 142.02642 6.883017500000015 Q138.2334975 10.649172500000013 132.9541725 10.649172500000013 H44.29473000000001 Z M44.29473000000001 -2.1247299999999925 H132.9541725 Q132.9541725 -2.1247299999999925 132.9541725 -2.1247299999999925 Q132.9541725 -2.1247299999999925 132.9541725 -2.1247299999999925 V-90.78417249999998 Q132.9541725 -90.78417249999998 132.9541725 -90.78417249999998 Q132.9541725 -90.78417249999998 132.9541725 -90.78417249999998 H44.29473000000001 Q44.29473000000001 -90.78417249999998 44.29473000000001 -90.78417249999998 Q44.29473000000001 -90.78417249999998 44.29473000000001 -90.78417249999998 V-2.1247299999999925 Q44.29473000000001 -2.1247299999999925 44.29473000000001 -2.1247299999999925 Q44.29473000000001 -2.1247299999999925 44.29473000000001 -2.1247299999999925 Z M21.845827500000002 33.189342500000016 Q16.566502500000002 33.189342500000016 12.773579999999999 29.396420000000017 Q8.980657500000001 25.603497500000014 8.980657500000001 20.324172500000014 V-81.1091725 H21.845827500000002 V20.324172500000014 Q21.845827500000002 20.324172500000014 21.845827500000002 20.324172500000014 Q21.845827500000002 20.324172500000014 21.845827500000002 20.324172500000014 H123.27917250000002 V33.189342500000016 H21.845827500000002 Z"/></g><g id="Medium-L" transform="matrix(1 0 0 1 1674.31 1556)"><path d="M79.02298125 -12.258969999999984 Q85.63423125000001 -12.258969999999984 90.31048125000001 -16.81928124999998 Q94.98673125 -21.379592499999987 94.98673125 -27.98423124999998 V-68.44959625 H113.69173125000002 V-78.14007624999999 H88.53673125000002 V-40.155219999999986 Q86.80152 -41.60646999999999 84.3121425 -42.41271999999998 Q81.82260375 -43.218969999999985 79.02298125 -43.218969999999985 Q72.72455625 -43.218969999999985 68.37564375000001 -38.80604124999999 Q64.02673125 -34.39327374999998 64.02673125 -28.002291249999985 Q64.02673125 -21.611469999999983 68.37564375000001 -16.93521999999998 Q72.72455625 -12.258969999999984 79.02298125 -12.258969999999984 Z M42.9276525 10.228471250000016 Q38.47731375 10.228471250000016 35.209421250000005 6.9605787500000105 Q31.94152875 3.6926862500000155 31.94152875 -0.7576524999999847 V-90.36347125 Q31.94152875 -94.82977374999999 35.209421250000005 -98.10895374999998 Q38.47731375 -101.38813374999998 42.9276525 -101.38813374999998 H132.53347125000002 Q136.99977375 -101.38813374999998 140.27895375 -98.10895374999998 Q143.55813375 -94.82977374999999 143.55813375 -90.36347125 V-0.7576524999999847 Q143.55813375 3.6926862500000155 140.27895375 6.9605787500000105 Q136.99977375 10.228471250000016 132.53347125000002 10.228471250000016 H42.9276525 Z M42.9276525 -0.7576524999999847 H132.53347125000002 Q132.53347125000002 -0.7576524999999847 132.53347125000002 -0.7576524999999847 Q132.53347125000002 -0.7576524999999847 132.53347125000002 -0.7576524999999847 V-90.36347125 Q132.53347125000002 -90.36347125 132.53347125000002 -90.36347125 Q132.53347125000002 -90.36347125 132.53347125000002 -90.36347125 H42.9276525 Q42.9276525 -90.36347125 42.9276525 -90.36347125 Q42.9276525 -90.36347125 42.9276525 -90.36347125 V-0.7576524999999847 Q42.9276525 -0.7576524999999847 42.9276525 -0.7576524999999847 Q42.9276525 -0.7576524999999847 42.9276525 -0.7576524999999847 Z M22.26652875 30.928133750000015 Q17.80022625 30.928133750000015 14.52104625 27.648953750000018 Q11.24186625 24.369773750000014 11.24186625 19.903471250000017 V-80.68847124999999 H22.26652875 V19.903471250000017 Q22.26652875 19.903471250000017 22.26652875 19.903471250000017 Q22.26652875 19.903471250000017 22.26652875 19.903471250000017 H122.85847125000001 V30.928133750000015 H22.26652875 Z"/></g><g id="Regular-L" transform="matrix(1 0 0 1 1378.56 1556)"><path d="M78.3675 -11.526249999999983 Q84.97875 -11.526249999999983 89.655 -16.108974999999987 Q94.33125 -20.691699999999983 94.33125 -27.328749999999985 V-67.96374999999999 H113.03625000000001 V-77.63874999999999 H87.88125000000001 V-39.422499999999985 Q86.1075 -40.87374999999999 83.63731125000001 -41.67999999999999 Q81.1671225 -42.486249999999984 78.3675 -42.486249999999984 Q72.069075 -42.486249999999984 67.7201625 -38.07348249999998 Q63.37125 -33.66071499999998 63.37125 -27.26973249999999 Q63.37125 -20.878749999999982 67.7201625 -16.202499999999986 Q72.069075 -11.526249999999983 78.3675 -11.526249999999983 Z M41.925000000000004 9.920000000000016 Q38.055 9.920000000000016 35.1525 7.0175000000000125 Q32.25 4.115000000000016 32.25 0.24500000000001165 V-90.05499999999998 Q32.25 -93.92499999999998 35.1525 -96.82749999999999 Q38.055 -99.72999999999999 41.925000000000004 -99.72999999999999 H132.225 Q136.095 -99.72999999999999 138.9975 -96.82749999999999 Q141.9 -93.92499999999998 141.9 -90.05499999999998 V0.24500000000001165 Q141.9 4.115000000000016 138.9975 7.0175000000000125 Q136.095 9.920000000000016 132.225 9.920000000000016 H41.925000000000004 Z M41.925000000000004 0.24500000000001165 H132.225 Q132.225 0.24500000000001165 132.225 0.24500000000001165 Q132.225 0.24500000000001165 132.225 0.24500000000001165 V-90.05499999999998 Q132.225 -90.05499999999998 132.225 -90.05499999999998 Q132.225 -90.05499999999998 132.225 -90.05499999999998 H41.925000000000004 Q41.925000000000004 -90.05499999999998 41.925000000000004 -90.05499999999998 Q41.925000000000004 -90.05499999999998 41.925000000000004 -90.05499999999998 V0.24500000000001165 Q41.925000000000004 0.24500000000001165 41.925000000000004 0.24500000000001165 Q41.925000000000004 0.24500000000001165 41.925000000000004 0.24500000000001165 Z M22.575 29.270000000000017 Q18.705000000000002 29.270000000000017 15.8025 26.367500000000014 Q12.9 23.465000000000014 12.9 19.595000000000017 V-80.37999999999998 H22.575 V19.595000000000017 Q22.575 19.595000000000017 22.575 19.595000000000017 Q22.575 19.595000000000017 22.575 19.595000000000017 H122.55 V29.270000000000017 H22.575 Z"/></g><g id="Light-L" transform="matrix(1 0 0 1 1082.77 1556)"><path d="M77.995335 -13.697158749999993 Q83.9864175 -13.697158749999993 88.19746125 -17.83257624999998 Q92.408505 -21.96815499999998 92.408505 -27.948917499999993 V-67.96374999999999 H110.36917500000001 V-77.0185825 H86.70283500000001 V-38.55416874999999 Q85.05308625 -40.06749999999998 82.79994 -40.93566999999999 Q80.54679375 -41.804001249999985 77.995335 -41.804001249999985 Q72.24886875 -41.804001249999985 68.27534625 -37.79435874999999 Q64.30166249999999 -33.78471624999999 64.30166249999999 -27.889899999999983 Q64.30166249999999 -22.11924624999999 68.27534625 -17.90820249999998 Q72.24886875 -13.697158749999993 77.995335 -13.697158749999993 Z M44.902158750000005 4.958176250000015 Q41.1081075 4.958176250000015 38.353635000000004 2.2037037500000167 Q35.599323749999996 -0.5507687499999889 35.599323749999996 -4.344819999999984 V-87.2018425 Q35.599323749999996 -90.99589375 38.353635000000004 -93.75036624999998 Q41.1081075 -96.50483875 44.902158750000005 -96.50483875 H127.75934250000002 Q131.5532325 -96.50483875 134.307705 -93.75036624999998 Q137.06217750000002 -90.99589375 137.06217750000002 -87.2018425 V-4.344819999999984 Q137.06217750000002 -0.5507687499999889 134.307705 2.2037037500000167 Q131.5532325 4.958176250000015 127.75934250000002 4.958176250000015 H44.902158750000005 Z M44.902158750000005 -2.3599937499999797 H127.75934250000002 Q128.50351125 -2.3599937499999797 129.12384 -2.9801612499999806 Q129.7440075 -3.6004899999999864 129.7440075 -4.344819999999984 V-87.2018425 Q129.7440075 -87.94617249999999 129.12384 -88.56650124999999 Q128.50351125 -89.18666875 127.75934250000002 -89.18666875 H44.902158750000005 Q44.15782875 -89.18666875 43.53766125 -88.56650124999999 Q42.9173325 -87.94617249999999 42.9173325 -87.2018425 V-4.344819999999984 Q42.9173325 -3.6004899999999864 43.53766125 -2.9801612499999806 Q44.15782875 -2.3599937499999797 44.902158750000005 -2.3599937499999797 Z M27.0406575 22.819516250000014 Q23.2467675 22.819516250000014 20.492295000000002 20.065043750000015 Q17.7378225 17.310732500000015 17.7378225 13.516681250000016 V-76.65851124999999 H25.0559925 V13.516681250000016 Q25.0559925 14.261011250000013 25.67616 14.881178750000014 Q26.29648875 15.501507500000017 27.0406575 15.501507500000017 H117.21601125000001 V22.819516250000014 H27.0406575 Z"/></g><g id="Thin-L" transform="matrix(1 0 0 1 787.282 1556)"><path d="M77.62333125 -15.867583749999987 Q82.994085 -15.867583749999987 86.74008375 -19.556016249999992 Q90.4860825 -23.24444874999999 90.4860825 -28.569084999999987 V-67.96374999999999 H107.70258375 V-76.39841499999999 H85.52458125 V-37.68599874999998 Q83.99883375 -39.26124999999999 81.96273000000001 -40.19150124999999 Q79.92662625 -41.12191374999999 77.62333125 -41.12191374999999 Q72.42882375 -41.12191374999999 68.83036875 -37.51523499999999 Q65.2317525 -33.90871749999998 65.2317525 -28.51006749999999 Q65.2317525 -23.35958124999999 68.83036875 -19.613582499999985 Q72.42882375 -15.867583749999987 77.62333125 -15.867583749999987 Z M47.87883375 -0.0030024999999866964 Q44.160731250000005 -0.0030024999999866964 41.5544475 -2.6094474999999875 Q38.9480025 -5.21573124999999 38.9480025 -8.933833749999984 V-84.34932999999998 Q38.9480025 -88.06727124999998 41.5544475 -90.67371624999998 Q44.160731250000005 -93.28 47.87883375 -93.28 H123.29433 Q127.01227125 -93.28 129.61871625 -90.67371624999998 Q132.225 -88.06727124999998 132.225 -84.34932999999998 V-8.933833749999984 Q132.225 -5.21573124999999 129.61871625 -2.6094474999999875 Q127.01227125 -0.0030024999999866964 123.29433 -0.0030024999999866964 H47.87883375 Z M47.87883375 -4.9645037499999916 H123.29433 Q124.7826675 -4.9645037499999916 126.02316375 -6.204999999999984 Q127.26349875 -7.445334999999986 127.26349875 -8.933833749999984 V-84.34932999999998 Q127.26349875 -85.83766749999998 126.02316375 -87.07816374999999 Q124.7826675 -88.31849874999997 123.29433 -88.31849874999997 H47.87883375 Q46.390335 -88.31849874999997 45.15 -87.07816374999999 Q43.909665 -85.83766749999998 43.909665 -84.34932999999998 V-8.933833749999984 Q43.909665 -7.445334999999986 45.15 -6.204999999999984 Q46.390335 -4.9645037499999916 47.87883375 -4.9645037499999916 Z M31.50567 16.370000000000015 Q27.78772875 16.370000000000015 25.181283750000002 13.763716250000012 Q22.575 11.157432500000017 22.575 7.4393300000000195 V-72.93766749999999 H27.53650125 V7.4393300000000195 Q27.53650125 8.927828750000018 28.776836250000002 10.168163750000012 Q30.017332500000002 11.408498750000014 31.50567 11.408498750000014 H111.88282875 V16.370000000000015 H31.50567 Z"/></g><g id="Ultralight-L" transform="matrix(1 0 0 1 491.205 1556)"><path d="M77.4 -17.169999999999987 Q82.39875 -17.169999999999987 85.86562500000001 -20.590112499999982 Q89.3325 -24.01022499999999 89.3325 -28.941249999999982 V-67.96374999999999 H106.1025 V-76.02624999999999 H84.8175 V-37.16499999999999 Q83.36625000000001 -38.77749999999999 81.46043625 -39.74499999999999 Q79.55462250000001 -40.71249999999999 77.4 -40.71249999999999 Q72.5367 -40.71249999999999 69.16335000000001 -37.34785749999999 Q65.79 -33.98321499999999 65.79 -28.882232499999986 Q65.79 -24.10374999999999 69.16335000000001 -20.63687499999999 Q72.5367 -17.169999999999987 77.4 -17.169999999999987 Z M49.665 -2.9799999999999827 Q45.992531250000006 -2.9799999999999827 43.474935 -5.497434999999989 Q40.9575 -8.015031249999986 40.9575 -11.687499999999986 V-82.63749999999999 Q40.9575 -86.30996875 43.474935 -88.82756499999999 Q45.992531250000006 -91.345 49.665 -91.345 H120.61500000000001 Q124.28746875 -91.345 126.80506500000001 -88.82756499999999 Q129.3225 -86.30996875 129.3225 -82.63749999999999 V-11.687499999999986 Q129.3225 -8.015031249999986 126.80506500000001 -5.497434999999989 Q124.28746875 -2.9799999999999827 120.61500000000001 -2.9799999999999827 H49.665 Z M49.665 -6.527499999999982 H120.61500000000001 Q122.55 -6.527499999999982 124.16250000000001 -8.139999999999986 Q125.775 -9.752499999999984 125.775 -11.687499999999986 V-82.63749999999999 Q125.775 -84.57249999999999 124.16250000000001 -86.18499999999997 Q122.55 -87.79749999999999 120.61500000000001 -87.79749999999999 H49.665 Q47.730000000000004 -87.79749999999999 46.1175 -86.18499999999997 Q44.505 -84.57249999999999 44.505 -82.63749999999999 V-11.687499999999986 Q44.505 -9.752499999999984 46.1175 -8.139999999999986 Q47.730000000000004 -6.527499999999982 49.665 -6.527499999999982 Z M34.185 12.500000000000014 Q30.51253125 12.500000000000014 27.99509625 9.982403750000017 Q25.4775 7.464968750000018 25.4775 3.792500000000018 V-70.70499999999998 H29.025000000000002 V3.792500000000018 Q29.025000000000002 5.727500000000013 30.6375 7.340000000000018 Q32.25 8.952500000000015 34.185 8.952500000000015 H108.6825 V12.500000000000014 H34.185 Z"/></g><g id="Bold-M" transform="matrix(1 0 0 1 2281.8 1126)"><path d="M65.375 -23.35499999999999 Q70.625 -23.35499999999999 74.25 -26.889374999999987 Q77.875 -30.42374999999999 77.875 -35.54249999999999 V-62.35499999999999 H92.875 V-72.35499999999999 H72.875 V-45.85499999999999 Q71.25 -47.10499999999999 69.375 -47.72999999999999 Q67.5 -48.35499999999999 65.375 -48.35499999999999 Q60.125 -48.35499999999999 56.5 -44.72999999999999 Q52.875 -41.10499999999999 52.875 -35.85499999999999 Q52.875 -30.60499999999999 56.5 -26.97999999999999 Q60.125 -23.35499999999999 65.375 -23.35499999999999 Z M44.375 -3.8549999999999898 Q37.75 -3.8549999999999898 33.1875 -8.41749999999999 Q28.625 -12.97999999999999 28.625 -19.60499999999999 V-76.60499999999999 Q28.625 -83.22999999999999 33.1875 -87.79249999999999 Q37.75 -92.35499999999999 44.375 -92.35499999999999 H101.375 Q108.0 -92.35499999999999 112.5625 -87.79249999999999 Q117.125 -83.22999999999999 117.125 -76.60499999999999 V-19.60499999999999 Q117.125 -12.97999999999999 112.5625 -8.41749999999999 Q108.0 -3.8549999999999898 101.375 -3.8549999999999898 H44.375 Z M44.375 -19.60499999999999 H101.375 Q101.375 -19.60499999999999 101.375 -19.60499999999999 Q101.375 -19.60499999999999 101.375 -19.60499999999999 V-76.60499999999999 Q101.375 -76.60499999999999 101.375 -76.60499999999999 Q101.375 -76.60499999999999 101.375 -76.60499999999999 H44.375 Q44.375 -76.60499999999999 44.375 -76.60499999999999 Q44.375 -76.60499999999999 44.375 -76.60499999999999 V-19.60499999999999 Q44.375 -19.60499999999999 44.375 -19.60499999999999 Q44.375 -19.60499999999999 44.375 -19.60499999999999 Z M18.625 21.89500000000001 Q12.0 21.89500000000001 7.4375 17.33250000000001 Q2.875 12.77000000000001 2.875 6.14500000000001 V-66.60499999999999 H18.625 V6.14500000000001 Q18.625 6.14500000000001 18.625 6.14500000000001 Q18.625 6.14500000000001 18.625 6.14500000000001 H91.375 V21.89500000000001 H18.625 Z"/></g><g id="Semibold-M" transform="matrix(1 0 0 1 1985.97 1126)"><path d="M64.125125 -21.996374999999986 Q69.375125 -21.996374999999986 73.000125 -25.57012499999999 Q76.625125 -29.14399999999999 76.625125 -34.31974999999999 V-61.431124999999994 H91.625125 V-71.431125 H71.625125 V-44.496374999999986 Q70.000125 -45.746374999999986 68.125125 -46.371374999999986 Q66.250125 -46.996374999999986 64.125125 -46.996374999999986 Q58.875125 -46.996374999999986 55.250125 -43.371374999999986 Q51.625125 -39.746374999999986 51.625125 -34.496374999999986 Q51.625125 -29.246374999999986 55.250125 -25.621374999999986 Q58.875125 -21.996374999999986 64.125125 -21.996374999999986 Z M42.473 -4.452749999999991 Q36.934875 -4.452749999999991 33.07875 -8.30874999999999 Q29.22275 -12.164874999999988 29.22275 -17.70299999999999 V-76.00724999999998 Q29.22275 -81.54537499999999 33.07875 -85.40137499999999 Q36.934875 -89.257375 42.473 -89.257375 H100.77725 Q106.315375 -89.257375 110.171375 -85.40137499999999 Q114.027375 -81.54537499999999 114.027375 -76.00724999999998 V-17.70299999999999 Q114.027375 -12.164874999999988 110.171375 -8.30874999999999 Q106.315375 -4.452749999999991 100.77725 -4.452749999999991 H42.473 Z M42.473 -17.70299999999999 H100.77725 Q100.77725 -17.70299999999999 100.77725 -17.70299999999999 Q100.77725 -17.70299999999999 100.77725 -17.70299999999999 V-76.00724999999998 Q100.77725 -76.00724999999998 100.77725 -76.00724999999998 Q100.77725 -76.00724999999998 100.77725 -76.00724999999998 H42.473 Q42.473 -76.00724999999998 42.473 -76.00724999999998 Q42.473 -76.00724999999998 42.473 -76.00724999999998 V-17.70299999999999 Q42.473 -17.70299999999999 42.473 -17.70299999999999 Q42.473 -17.70299999999999 42.473 -17.70299999999999 Z M19.22275 18.79737500000001 Q13.684625 18.79737500000001 9.828625 14.94137500000001 Q5.972625 11.08537500000001 5.972625 5.547250000000009 V-66.00724999999998 H19.22275 V5.547250000000009 Q19.22275 5.547250000000009 19.22275 5.547250000000009 Q19.22275 5.547250000000009 19.22275 5.547250000000009 H90.77725 V18.79737500000001 H19.22275 Z"/></g><g id="Medium-M" transform="matrix(1 0 0 1 1689.91 1126)"><path d="M63.1875 -20.97724999999999 Q68.4375 -20.97724999999999 72.0625 -24.58062499999999 Q75.6875 -28.18399999999999 75.6875 -33.402624999999986 V-60.738125 H90.6875 V-70.738125 H70.6875 V-43.477249999999984 Q69.0625 -44.727249999999984 67.1875 -45.352249999999984 Q65.3125 -45.977249999999984 63.1875 -45.977249999999984 Q57.9375 -45.977249999999984 54.3125 -42.352249999999984 Q50.6875 -38.72724999999999 50.6875 -33.47724999999999 Q50.6875 -28.22724999999999 54.3125 -24.60224999999999 Q57.9375 -20.97724999999999 63.1875 -20.97724999999999 Z M41.04625 -4.90124999999999 Q36.323375 -4.90124999999999 32.99725 -8.22724999999999 Q29.67125 -11.553374999999988 29.67125 -16.27624999999999 V-75.55874999999999 Q29.67125 -80.28162499999999 32.99725 -83.60775 Q36.323375 -86.93387499999999 41.04625 -86.93387499999999 H100.32875 Q105.051625 -86.93387499999999 108.37775 -83.60775 Q111.703875 -80.28162499999999 111.703875 -75.55874999999999 V-16.27624999999999 Q111.703875 -11.553374999999988 108.37775 -8.22724999999999 Q105.051625 -4.90124999999999 100.32875 -4.90124999999999 H41.04625 Z M41.04625 -16.27624999999999 H100.32875 Q100.32875 -16.27624999999999 100.32875 -16.27624999999999 Q100.32875 -16.27624999999999 100.32875 -16.27624999999999 V-75.55874999999999 Q100.32875 -75.55874999999999 100.32875 -75.55874999999999 Q100.32875 -75.55874999999999 100.32875 -75.55874999999999 H41.04625 Q41.04625 -75.55874999999999 41.04625 -75.55874999999999 Q41.04625 -75.55874999999999 41.04625 -75.55874999999999 V-16.27624999999999 Q41.04625 -16.27624999999999 41.04625 -16.27624999999999 Q41.04625 -16.27624999999999 41.04625 -16.27624999999999 Z M19.67125 16.47387500000001 Q14.948375 16.47387500000001 11.62225 13.147750000000011 Q8.296125 9.82162500000001 8.296125 5.09875000000001 V-65.55874999999999 H19.67125 V5.09875000000001 Q19.67125 5.09875000000001 19.67125 5.09875000000001 Q19.67125 5.09875000000001 19.67125 5.09875000000001 H90.32875 V16.47387500000001 H19.67125 Z"/></g><g id="Regular-M" transform="matrix(1 0 0 1 1394.06 1126)"><path d="M62.5 -20.22999999999999 Q67.75 -20.22999999999999 71.375 -23.85499999999999 Q75.0 -27.47999999999999 75.0 -32.72999999999999 V-60.22999999999999 H90.0 V-70.22999999999999 H70.0 V-42.72999999999999 Q68.375 -43.97999999999999 66.5 -44.60499999999999 Q64.625 -45.22999999999999 62.5 -45.22999999999999 Q57.25 -45.22999999999999 53.625 -41.60499999999999 Q50.0 -37.97999999999999 50.0 -32.72999999999999 Q50.0 -27.47999999999999 53.625 -23.85499999999999 Q57.25 -20.22999999999999 62.5 -20.22999999999999 Z M40.0 -5.22999999999999 Q35.875 -5.22999999999999 32.9375 -8.16749999999999 Q30.0 -11.10499999999999 30.0 -15.22999999999999 V-75.22999999999999 Q30.0 -79.35499999999999 32.9375 -82.29249999999999 Q35.875 -85.22999999999999 40.0 -85.22999999999999 H100.0 Q104.125 -85.22999999999999 107.0625 -82.29249999999999 Q110.0 -79.35499999999999 110.0 -75.22999999999999 V-15.22999999999999 Q110.0 -11.10499999999999 107.0625 -8.16749999999999 Q104.125 -5.22999999999999 100.0 -5.22999999999999 H40.0 Z M40.0 -15.22999999999999 H100.0 Q100.0 -15.22999999999999 100.0 -15.22999999999999 Q100.0 -15.22999999999999 100.0 -15.22999999999999 V-75.22999999999999 Q100.0 -75.22999999999999 100.0 -75.22999999999999 Q100.0 -75.22999999999999 100.0 -75.22999999999999 H40.0 Q40.0 -75.22999999999999 40.0 -75.22999999999999 Q40.0 -75.22999999999999 40.0 -75.22999999999999 V-15.22999999999999 Q40.0 -15.22999999999999 40.0 -15.22999999999999 Q40.0 -15.22999999999999 40.0 -15.22999999999999 Z M20.0 14.77000000000001 Q15.875 14.77000000000001 12.9375 11.83250000000001 Q10.0 8.89500000000001 10.0 4.77000000000001 V-65.22999999999999 H20.0 V4.77000000000001 Q20.0 4.77000000000001 20.0 4.77000000000001 Q20.0 4.77000000000001 20.0 4.77000000000001 H90.0 V14.77000000000001 H20.0 Z"/></g><g id="Light-M" transform="matrix(1 0 0 1 1098.18 1126)"><path d="M61.73075 -20.99924999999999 Q66.451875 -20.99924999999999 69.71625 -24.26362499999999 Q72.980625 -27.52812499999999 72.980625 -32.24924999999999 V-60.32612499999999 H87.3075 V-69.17224999999999 H68.557625 V-40.90299999999999 Q67.124875 -42.20099999999999 65.41825 -42.85012499999999 Q63.7115 -43.49912499999999 61.73075 -43.49912499999999 Q57.009625 -43.49912499999999 53.74525 -40.23474999999999 Q50.48075 -36.97024999999999 50.48075 -32.24924999999999 Q50.48075 -27.52812499999999 53.74525 -24.26362499999999 Q57.009625 -20.99924999999999 61.73075 -20.99924999999999 Z M40.2885 -7.730124999999987 Q36.5 -7.730124999999987 33.875125 -10.355124999999987 Q31.250125 -12.980124999999987 31.250125 -16.768624999999993 V-73.691375 Q31.250125 -77.47987499999999 33.875125 -80.10487499999999 Q36.5 -82.72987499999999 40.2885 -82.72987499999999 H97.211375 Q100.99975 -82.72987499999999 103.62475 -80.10487499999999 Q106.24975 -77.47987499999999 106.24975 -73.691375 V-16.768624999999993 Q106.24975 -12.980124999999987 103.62475 -10.355124999999987 Q100.99975 -7.730124999999987 97.211375 -7.730124999999987 H40.2885 Z M40.2885 -15.22999999999999 H97.211375 Q97.78825 -15.22999999999999 98.269125 -15.71074999999999 Q98.749875 -16.191624999999988 98.749875 -16.768624999999993 V-73.691375 Q98.749875 -74.26837499999999 98.269125 -74.74924999999999 Q97.78825 -75.22999999999999 97.211375 -75.22999999999999 H40.2885 Q39.7115 -75.22999999999999 39.23075 -74.74924999999999 Q38.749875 -74.26837499999999 38.749875 -73.691375 V-16.768624999999993 Q38.749875 -16.191624999999988 39.23075 -15.71074999999999 Q39.7115 -15.22999999999999 40.2885 -15.22999999999999 Z M22.788625 9.76962500000001 Q19.00025 9.76962500000001 16.37525 7.144625000000012 Q13.75025 4.519625000000012 13.75025 0.73125000000001 V-63.691374999999994 H21.250125 V0.73125000000001 Q21.250125 1.3082500000000117 21.730875 1.7890000000000086 Q22.21175 2.2698750000000096 22.788625 2.2698750000000096 H87.211375 V9.76962500000001 H22.788625 Z"/></g><g id="Thin-M" transform="matrix(1 0 0 1 802.565 1126)"><path d="M60.9615 -21.76849999999999 Q65.153875 -21.76849999999999 68.05775 -24.67224999999999 Q70.961625 -27.57612499999999 70.961625 -31.76849999999999 V-60.42224999999999 H84.615375 V-68.11462499999999 H67.115375 V-39.07612499999999 Q65.875 -40.42237499999999 64.3365 -41.09537499999999 Q62.798125 -41.76849999999999 60.9615 -41.76849999999999 Q56.76925 -41.76849999999999 53.865375 -38.86462499999999 Q50.9615 -35.96074999999999 50.9615 -31.76849999999999 Q50.9615 -27.57612499999999 53.865375 -24.67224999999999 Q56.76925 -21.76849999999999 60.9615 -21.76849999999999 Z M40.576875 -10.22999999999999 Q37.125 -10.22999999999999 34.8125 -12.54249999999999 Q32.5 -14.85499999999999 32.5 -18.30687499999999 V-72.15312499999999 Q32.5 -75.60499999999999 34.8125 -77.91749999999999 Q37.125 -80.22999999999999 40.576875 -80.22999999999999 H94.423125 Q97.875 -80.22999999999999 100.1875 -77.91749999999999 Q102.5 -75.60499999999999 102.5 -72.15312499999999 V-18.30687499999999 Q102.5 -14.85499999999999 100.1875 -12.54249999999999 Q97.875 -10.22999999999999 94.423125 -10.22999999999999 H40.576875 Z M40.576875 -15.22999999999999 H94.423125 Q95.577 -15.22999999999999 96.5385 -16.19149999999999 Q97.5 -17.15312499999999 97.5 -18.30687499999999 V-72.15312499999999 Q97.5 -73.30687499999999 96.5385 -74.26849999999999 Q95.577 -75.22999999999999 94.423125 -75.22999999999999 H40.576875 Q39.423125 -75.22999999999999 38.4615 -74.26849999999999 Q37.5 -73.30687499999999 37.5 -72.15312499999999 V-18.30687499999999 Q37.5 -17.15312499999999 38.4615 -16.19149999999999 Q39.423125 -15.22999999999999 40.576875 -15.22999999999999 Z M25.576875 4.77000000000001 Q22.125 4.77000000000001 19.8125 2.4575000000000102 Q17.5 0.14500000000001023 17.5 -3.306874999999991 V-62.15312499999999 H22.5 V-3.306874999999991 Q22.5 -2.152999999999988 23.4615 -1.1914999999999907 Q24.423 -0.22999999999998977 25.576875 -0.22999999999998977 H84.423125 V4.77000000000001 H25.576875 Z"/></g><g id="Ultralight-M" transform="matrix(1 0 0 1 506.415 1126)"><path d="M60.5 -22.22999999999999 Q64.375 -22.22999999999999 67.0625 -24.91749999999999 Q69.75 -27.60499999999999 69.75 -31.47999999999999 V-60.47999999999999 H83.0 V-67.47999999999999 H66.25 V-37.97999999999999 Q65.125 -39.35499999999999 63.6875 -40.04249999999999 Q62.25 -40.72999999999999 60.5 -40.72999999999999 Q56.625 -40.72999999999999 53.9375 -38.04249999999999 Q51.25 -35.35499999999999 51.25 -31.47999999999999 Q51.25 -27.60499999999999 53.9375 -24.91749999999999 Q56.625 -22.22999999999999 60.5 -22.22999999999999 Z M40.75 -11.72999999999999 Q37.5 -11.72999999999999 35.375 -13.85499999999999 Q33.25 -15.97999999999999 33.25 -19.22999999999999 V-71.22999999999999 Q33.25 -74.47999999999999 35.375 -76.60499999999999 Q37.5 -78.72999999999999 40.75 -78.72999999999999 H92.75 Q96.0 -78.72999999999999 98.125 -76.60499999999999 Q100.25 -74.47999999999999 100.25 -71.22999999999999 V-19.22999999999999 Q100.25 -15.97999999999999 98.125 -13.85499999999999 Q96.0 -11.72999999999999 92.75 -11.72999999999999 H40.75 Z M40.75 -15.22999999999999 H92.75 Q94.25 -15.22999999999999 95.5 -16.47999999999999 Q96.75 -17.72999999999999 96.75 -19.22999999999999 V-71.22999999999999 Q96.75 -72.72999999999999 95.5 -73.97999999999999 Q94.25 -75.22999999999999 92.75 -75.22999999999999 H40.75 Q39.25 -75.22999999999999 38.0 -73.97999999999999 Q36.75 -72.72999999999999 36.75 -71.22999999999999 V-19.22999999999999 Q36.75 -17.72999999999999 38.0 -16.47999999999999 Q39.25 -15.22999999999999 40.75 -15.22999999999999 Z M27.25 1.7700000000000102 Q24.0 1.7700000000000102 21.875 -0.35499999999998977 Q19.75 -2.4799999999999898 19.75 -5.72999999999999 V-61.22999999999999 H23.25 V-5.72999999999999 Q23.25 -4.22999999999999 24.5 -2.9799999999999898 Q25.75 -1.7299999999999898 27.25 -1.7299999999999898 H82.75 V1.7700000000000102 H27.25 Z"/></g><g id="Bold-S" transform="matrix(1 0 0 1 2294.23 696)"><path d="M51.953184375 -25.860624999999985 Q55.920375 -25.860624999999985 58.681875000000005 -28.53484187499999 Q61.443375 -31.20905874999999 61.443375 -35.082062499999985 V-53.475624999999994 H73.278375 V-62.94362499999998 H56.709375 V-43.51449999999999 Q55.624500000000005 -44.10624999999999 54.4903125 -44.45143749999999 Q53.356125000000006 -44.79662499999999 51.975375 -44.79662499999999 Q47.998815 -44.79662499999999 45.253095 -42.057315624999994 Q42.507375 -39.31810487499999 42.507375 -35.35081562499999 Q42.507375 -31.383624999999988 45.246684375 -28.62212499999999 Q47.985895125 -25.860624999999985 51.953184375 -25.860624999999985 Z M34.222875 -10.475124999999988 Q29.3212125 -10.475124999999988 25.95316875 -13.843168749999986 Q22.585125 -17.211212499999988 22.585125 -22.11287499999999 V-67.08587499999999 Q22.585125 -71.98753749999999 25.95316875 -75.35558124999999 Q29.3212125 -78.72362499999998 34.222875 -78.72362499999998 H79.195875 Q84.0975375 -78.72362499999998 87.46558125 -75.35558124999999 Q90.833625 -71.98753749999999 90.833625 -67.08587499999999 V-22.11287499999999 Q90.833625 -17.211212499999988 87.46558125 -13.843168749999986 Q84.0975375 -10.475124999999988 79.195875 -10.475124999999988 H34.222875 Z M34.222875 -22.11287499999999 H79.195875 Q79.195875 -22.11287499999999 79.195875 -22.11287499999999 Q79.195875 -22.11287499999999 79.195875 -22.11287499999999 V-67.08587499999999 Q79.195875 -67.08587499999999 79.195875 -67.08587499999999 Q79.195875 -67.08587499999999 79.195875 -67.08587499999999 H34.222875 Q34.222875 -67.08587499999999 34.222875 -67.08587499999999 Q34.222875 -67.08587499999999 34.222875 -67.08587499999999 V-22.11287499999999 Q34.222875 -22.11287499999999 34.222875 -22.11287499999999 Q34.222875 -22.11287499999999 34.222875 -22.11287499999999 Z M15.484125 8.263625000000014 Q10.5824625 8.263625000000014 7.214418750000001 4.895581250000013 Q3.846375 1.5275375000000135 3.846375 -3.374124999999987 V-59.98487499999999 H15.484125 V-3.374124999999987 Q15.484125 -3.374124999999987 15.484125 -3.374124999999987 Q15.484125 -3.374124999999987 15.484125 -3.374124999999987 H72.094875 V8.263625000000014 H15.484125 Z"/></g><g id="Semibold-S" transform="matrix(1 0 0 1 1998.1 696)"><path d="M50.966934375 -24.788669874999982 Q54.934223625 -24.788669874999982 57.695723625 -27.49395362499999 Q60.457223625 -30.199335999999988 60.457223625 -34.11731274999999 V-52.74668762499999 H72.292223625 V-62.214687624999996 H55.723223625 V-42.44254487499999 Q54.638348625 -43.034294874999986 53.504161125 -43.37948237499999 Q52.369973625 -43.72466987499999 50.989223625 -43.72466987499999 Q47.012663625 -43.72466987499999 44.266943625 -40.985459124999984 Q41.521223625 -38.24614974999999 41.521223625 -34.27895912499999 Q41.521223625 -30.311669874999986 44.260434375 -27.550169874999987 Q46.99974375 -24.788669874999982 50.966934375 -24.788669874999982 Z M32.722197 -10.946749749999988 Q28.678078875 -10.946749749999988 25.867365 -13.757364999999986 Q23.05674975 -16.568078874999987 23.05674975 -20.612196999999988 V-66.61425024999998 Q23.05674975 -70.65836837499998 25.867365 -73.46898362499999 Q28.678078875 -76.27959887499999 32.722197 -76.27959887499999 H78.72425025 Q82.768368375 -76.27959887499999 85.578983625 -73.46898362499999 Q88.389598875 -70.65836837499998 88.389598875 -66.61425024999998 V-20.612196999999988 Q88.389598875 -16.568078874999987 85.578983625 -13.757364999999986 Q82.768368375 -10.946749749999988 78.72425025 -10.946749749999988 H32.722197 Z M32.722197 -20.612196999999988 H78.72425025 Q78.72425025 -20.612196999999988 78.72425025 -20.612196999999988 Q78.72425025 -20.612196999999988 78.72425025 -20.612196999999988 V-66.61425024999998 Q78.72425025 -66.61425024999998 78.72425025 -66.61425024999998 Q78.72425025 -66.61425024999998 78.72425025 -66.61425024999998 H32.722197 Q32.722197 -66.61425024999998 32.722197 -66.61425024999998 Q32.722197 -66.61425024999998 32.722197 -66.61425024999998 V-20.612196999999988 Q32.722197 -20.612196999999988 32.722197 -20.612196999999988 Q32.722197 -20.612196999999988 32.722197 -20.612196999999988 Z M15.955749750000003 5.819598875000014 Q11.911631625 5.819598875000014 9.101016375 3.0089836250000133 Q6.290401125 0.19836837500001359 6.290401125 -3.845749749999989 V-59.513250249999984 H15.955749750000003 V-3.845749749999989 Q15.955749750000003 -3.845749749999989 15.955749750000003 -3.845749749999989 Q15.955749750000003 -3.845749749999989 15.955749750000003 -3.845749749999989 H71.62325025 V5.819598875000014 H15.955749750000003 Z"/></g><g id="Medium-S" transform="matrix(1 0 0 1 1701.85 696)"><path d="M50.227246875 -23.984580249999986 Q54.1944375 -23.984580249999986 56.955937500000005 -26.71323812499999 Q59.7174375 -29.441895999999993 59.7174375 -33.393701124999986 V-52.199910625 H71.5524375 V-61.66791062499999 H54.9834375 V-41.638455249999986 Q53.898562500000004 -42.23020524999998 52.764375 -42.575392749999985 Q51.630187500000005 -42.920580249999986 50.2494375 -42.920580249999986 Q46.2728775 -42.920580249999986 43.5271575 -40.18136949999998 Q40.7814375 -37.44206012499998 40.7814375 -33.47486949999999 Q40.7814375 -29.50758024999999 43.520746875 -26.74608024999999 Q46.259957625 -23.984580249999986 50.227246875 -23.984580249999986 Z M31.596491250000003 -11.300616249999987 Q28.195605375 -11.300616249999987 25.8030615 -13.693061499999985 Q23.41061625 -16.085605374999986 23.41061625 -19.48649124999999 V-66.26038374999999 Q23.41061625 -69.66126962499999 25.8030615 -72.05381349999999 Q28.195605375 -74.44635737499999 31.596491250000003 -74.44635737499999 H78.37038375 Q81.771269625 -74.44635737499999 84.1638135 -72.05381349999999 Q86.556357375 -69.66126962499999 86.556357375 -66.26038374999999 V-19.48649124999999 Q86.556357375 -16.085605374999986 84.1638135 -13.693061499999985 Q81.771269625 -11.300616249999987 78.37038375 -11.300616249999987 H31.596491250000003 Z M31.596491250000003 -19.48649124999999 H78.37038375 Q78.37038375 -19.48649124999999 78.37038375 -19.48649124999999 Q78.37038375 -19.48649124999999 78.37038375 -19.48649124999999 V-66.26038374999999 Q78.37038375 -66.26038374999999 78.37038375 -66.26038374999999 Q78.37038375 -66.26038374999999 78.37038375 -66.26038374999999 H31.596491250000003 Q31.596491250000003 -66.26038374999999 31.596491250000003 -66.26038374999999 Q31.596491250000003 -66.26038374999999 31.596491250000003 -66.26038374999999 V-19.48649124999999 Q31.596491250000003 -19.48649124999999 31.596491250000003 -19.48649124999999 Q31.596491250000003 -19.48649124999999 31.596491250000003 -19.48649124999999 Z M16.30961625 3.986357375000013 Q12.908730375000001 3.986357375000013 10.5161865 1.5938135000000138 Q8.123642625 -0.7987303749999874 8.123642625 -4.199616249999988 V-59.15938374999999 H16.30961625 V-4.199616249999988 Q16.30961625 -4.199616249999988 16.30961625 -4.199616249999988 Q16.30961625 -4.199616249999988 16.30961625 -4.199616249999988 H71.26938375 V3.986357375000013 H16.30961625 Z"/></g><g id="Regular-S" transform="matrix(1 0 0 1 1405.73 696)"><path d="M49.684809375 -23.39499999999999 Q53.652 -23.39499999999999 56.4135 -26.140719999999988 Q59.175000000000004 -28.886439999999986 59.175000000000004 -32.862999999999985 V-51.79899999999999 H71.01 V-61.266999999999996 H54.441 V-41.04887499999999 Q53.356125000000006 -41.640624999999986 52.2219375 -41.98581249999999 Q51.08775 -42.33099999999999 49.707 -42.33099999999999 Q45.73044 -42.33099999999999 42.98472 -39.59169062499999 Q40.239000000000004 -36.85247987499999 40.239000000000004 -32.88519062499999 Q40.239000000000004 -28.917999999999985 42.978309375 -26.156499999999987 Q45.717520125 -23.39499999999999 49.684809375 -23.39499999999999 Z M30.771 -11.559999999999988 Q27.841837500000004 -11.559999999999988 25.75591875 -13.645918749999986 Q23.67 -15.73183749999999 23.67 -18.660999999999987 V-66.00099999999999 Q23.67 -68.9301625 25.75591875 -71.01608125 Q27.841837500000004 -73.10199999999999 30.771 -73.10199999999999 H78.111 Q81.04016250000001 -73.10199999999999 83.12608125000001 -71.01608125 Q85.212 -68.9301625 85.212 -66.00099999999999 V-18.660999999999987 Q85.212 -15.73183749999999 83.12608125000001 -13.645918749999986 Q81.04016250000001 -11.559999999999988 78.111 -11.559999999999988 H30.771 Z M30.771 -18.660999999999987 H78.111 Q78.111 -18.660999999999987 78.111 -18.660999999999987 Q78.111 -18.660999999999987 78.111 -18.660999999999987 V-66.00099999999999 Q78.111 -66.00099999999999 78.111 -66.00099999999999 Q78.111 -66.00099999999999 78.111 -66.00099999999999 H30.771 Q30.771 -66.00099999999999 30.771 -66.00099999999999 Q30.771 -66.00099999999999 30.771 -66.00099999999999 V-18.660999999999987 Q30.771 -18.660999999999987 30.771 -18.660999999999987 Q30.771 -18.660999999999987 30.771 -18.660999999999987 Z M16.569 2.6420000000000137 Q13.639837500000002 2.6420000000000137 11.553918750000001 0.5560812500000125 Q9.468 -1.5298374999999886 9.468 -4.458999999999985 V-58.89999999999999 H16.569 V-4.458999999999985 Q16.569 -4.458999999999985 16.569 -4.458999999999985 Q16.569 -4.458999999999985 16.569 -4.458999999999985 H71.01 V2.6420000000000137 H16.569 Z"/></g><g id="Light-S" transform="matrix(1 0 0 1 1109.75 696)"><path d="M49.0777725 -24.001938249999988 Q52.627779375 -24.001938249999988 55.104746250000005 -26.463125124999983 Q57.58171312500001 -28.924410624999986 57.58171312500001 -32.483688249999986 V-51.87484262499999 H68.88561750000001 V-60.43243525 H53.302966125000005 V-39.60737199999999 Q52.36977637500001 -40.23699399999999 51.36843675 -40.60121612499999 Q50.3669985 -40.96533962499999 49.10006175 -40.96533962499999 Q45.540784125 -40.96533962499999 43.079597250000006 -38.51056337499999 Q40.618311750000004 -36.05578712499999 40.618311750000004 -32.50587887499999 Q40.618311750000004 -28.955970624999985 43.073088 -26.47890512499999 Q45.52786425 -24.001938249999988 49.0777725 -24.001938249999988 Z M30.9986265 -13.532598624999984 Q28.334962500000003 -13.532598624999984 26.495704875 -15.37195487499999 Q24.656348625000003 -17.211311124999987 24.656348625000003 -19.87497512499999 V-64.78702487499999 Q24.656348625000003 -67.45068887499998 26.495704875 -69.29004512499999 Q28.334962500000003 -71.12940137499999 30.9986265 -71.12940137499999 H75.910774875 Q78.57434025 -71.12940137499999 80.4136965 -69.29004512499999 Q82.25305275000001 -67.45068887499998 82.25305275000001 -64.78702487499999 V-19.87497512499999 Q82.25305275000001 -17.211311124999987 80.4136965 -15.37195487499999 Q78.57434025 -13.532598624999984 75.910774875 -13.532598624999984 H30.9986265 Z M30.9986265 -18.660999999999987 H75.910774875 Q76.36592925000001 -18.660999999999987 76.745339625 -19.040311749999987 Q77.124651375 -19.419722124999986 77.124651375 -19.87497512499999 V-64.78702487499999 Q77.124651375 -65.24227787499998 76.745339625 -65.62168824999999 Q76.36592925000001 -66.00099999999999 75.910774875 -66.00099999999999 H30.9986265 Q30.5433735 -66.00099999999999 30.164061750000002 -65.62168824999999 Q29.784651375000003 -65.24227787499998 29.784651375000003 -64.78702487499999 V-19.87497512499999 Q29.784651375000003 -19.419722124999986 30.164061750000002 -19.040311749999987 Q30.5433735 -18.660999999999987 30.9986265 -18.660999999999987 Z M18.769225125000002 -1.3032958749999857 Q16.10565975 -1.3032958749999857 14.2663035 -3.1426521249999855 Q12.42694725 -4.982008374999985 12.42694725 -7.645573749999986 V-57.68602487499999 H17.555348625 V-7.645573749999986 Q17.555348625 -7.190320749999987 17.934660375 -6.811008999999988 Q18.31407075 -6.431598624999989 18.769225125000002 -6.431598624999989 H68.809774875 V-1.3032958749999857 H18.769225125000002 Z"/></g><g id="Thin-S" transform="matrix(1 0 0 1 814.015 696)"><path d="M48.470932875 -24.608876499999987 Q51.603657375000004 -24.608876499999987 53.79618975 -26.785530249999987 Q55.988722125 -28.962282624999986 55.988722125 -32.10437649999999 V-51.95068524999999 H66.761530875 V-59.59796912499999 H52.165030875 V-38.165967624999986 Q51.383625 -38.83365887499999 50.514936000000006 -39.21671837499999 Q49.646345625 -39.599876499999986 48.4931235 -39.599876499999986 Q45.35112825 -39.599876499999986 43.174375875 -37.42953474999999 Q40.9976235 -35.25929162499999 40.9976235 -32.12656712499999 Q40.9976235 -28.993842624999992 43.16796525 -26.801310249999986 Q45.338208375 -24.608876499999987 48.470932875 -24.608876499999987 Z M31.226154375000004 -15.504999999999988 Q28.828087500000002 -15.504999999999988 27.23529375 -17.097793749999987 Q25.642500000000002 -18.69058749999999 25.642500000000002 -21.08865437499999 V-63.57334562499999 Q25.642500000000002 -65.9714125 27.23529375 -67.56420625 Q28.828087500000002 -69.157 31.226154375000004 -69.157 H73.710845625 Q76.1089125 -69.157 77.70170625 -67.56420625 Q79.2945 -65.9714125 79.2945 -63.57334562499999 V-21.08865437499999 Q79.2945 -18.69058749999999 77.70170625 -17.097793749999987 Q76.1089125 -15.504999999999988 73.710845625 -15.504999999999988 H31.226154375000004 Z M31.226154375000004 -18.660999999999987 H73.710845625 Q74.621253 -18.660999999999987 75.37987650000001 -19.41962349999999 Q76.13850000000001 -20.178345624999984 76.13850000000001 -21.08865437499999 V-63.57334562499999 Q76.13850000000001 -64.48365437499999 75.37987650000001 -65.24237649999999 Q74.621253 -66.00099999999999 73.710845625 -66.00099999999999 H31.226154375000004 Q30.315845625 -66.00099999999999 29.557123500000003 -65.24237649999999 Q28.7985 -64.48365437499999 28.7985 -63.57334562499999 V-21.08865437499999 Q28.7985 -20.178345624999984 29.557123500000003 -19.41962349999999 Q30.315845625 -18.660999999999987 31.226154375000004 -18.660999999999987 Z M20.969154375000002 -5.247999999999987 Q18.5710875 -5.247999999999987 16.978293750000002 -6.840793749999989 Q15.3855 -8.433587499999987 15.3855 -10.831654374999989 V-56.47234562499999 H18.5415 V-10.831654374999989 Q18.5415 -9.921246999999987 19.3001235 -9.162623499999988 Q20.058747 -8.403999999999986 20.969154375000002 -8.403999999999986 H66.609845625 V-5.247999999999987 H20.969154375000002 Z"/></g><g id="Ultralight-S" transform="matrix(1 0 0 1 517.792 696)"><path d="M48.106809375 -24.972999999999985 Q50.989125 -24.972999999999985 53.010937500000004 -26.979032499999988 Q55.03275 -28.98506499999999 55.03275 -31.876749999999987 V-51.99624999999999 H65.48700000000001 V-59.09724999999999 H51.48225 V-37.30112499999999 Q50.791875000000005 -37.99149999999999 50.002875 -38.38599999999999 Q49.213875 -38.78049999999999 48.129000000000005 -38.78049999999999 Q45.237315 -38.78049999999999 43.2312825 -36.780878124999994 Q41.22525 -34.78135487499999 41.22525 -31.898940624999987 Q41.22525 -29.01662499999999 43.224871875 -26.994812499999988 Q45.224395125 -24.972999999999985 48.106809375 -24.972999999999985 Z M31.362750000000002 -16.688499999999987 Q29.1239625 -16.688499999999987 27.67910625 -18.133356249999984 Q26.23425 -19.57821249999999 26.23425 -21.816999999999986 V-62.844999999999985 Q26.23425 -65.0837875 27.67910625 -66.52864374999999 Q29.1239625 -67.97349999999999 31.362750000000002 -67.97349999999999 H72.39075 Q74.62953750000001 -67.97349999999999 76.07439375 -66.52864374999999 Q77.51925 -65.0837875 77.51925 -62.844999999999985 V-21.816999999999986 Q77.51925 -19.57821249999999 76.07439375 -18.133356249999984 Q74.62953750000001 -16.688499999999987 72.39075 -16.688499999999987 H31.362750000000002 Z M31.362750000000002 -18.660999999999987 H72.39075 Q73.57425 -18.660999999999987 74.5605 -19.64724999999999 Q75.54675 -20.63349999999999 75.54675 -21.816999999999986 V-62.844999999999985 Q75.54675 -64.0285 74.5605 -65.01474999999999 Q73.57425 -66.00099999999999 72.39075 -66.00099999999999 H31.362750000000002 Q30.17925 -66.00099999999999 29.193 -65.01474999999999 Q28.20675 -64.0285 28.20675 -62.844999999999985 V-21.816999999999986 Q28.20675 -20.63349999999999 29.193 -19.64724999999999 Q30.17925 -18.660999999999987 31.362750000000002 -18.660999999999987 Z M22.289250000000003 -7.614999999999988 Q20.050462500000002 -7.614999999999988 18.60560625 -9.059856249999989 Q17.16075 -10.50471249999999 17.16075 -12.743499999999987 V-55.743999999999986 H19.13325 V-12.743499999999987 Q19.13325 -11.559999999999988 20.119500000000002 -10.573749999999986 Q21.10575 -9.587499999999988 22.289250000000003 -9.587499999999988 H65.28975 V-7.614999999999988 H22.289250000000003 Z"/></g></g></svg>