<svg xmlns="http://www.w3.org/2000/svg" version="1.1" width="3300" height="2000"><g id="Notes"><style>
    text {
      font-family: monospace;
      text-anchor: middle;
    }
    text.emphasis {
      font-weight:bold;
    }
    text.lanchor {
      text-anchor: start;
    }
  </style><rect height="2200" id="artboard" fill="white" width="3300" x="0" y="0"/><line id="" style="fill:none;stroke:black;stroke-width:0.5;" x1="263" x2="3036" y1="292" y2="292"/><text class="lanchor emphasis" transform="matrix(1 0 0 1 263 322)">Weight/Scale Variations</text><text transform="matrix(1 0 0 1 559.711 322)">Ultralight</text><text transform="matrix(1 0 0 1 856.422 322)">Thin</text><text transform="matrix(1 0 0 1 1153.13 322)">Light</text><text transform="matrix(1 0 0 1 1449.84 322)">Regular</text><text transform="matrix(1 0 0 1 1746.56 322)">Medium</text><text transform="matrix(1 0 0 1 2043.27 322)">Semibold</text><text transform="matrix(1 0 0 1 2339.98 322)">Bold</text><text transform="matrix(1 0 0 1 2636.69 322)">Heavy</text><text transform="matrix(1 0 0 1 2933.4 322)">Black</text><text id="template-version" style="text-anchor: end;" transform="matrix(1 0 0 1 3036 1933)">Template v.1.0</text><text class="lanchor" transform="matrix(1 0 0 1 263 726)">Small</text><text class="lanchor" transform="matrix(1 0 0 1 263 1156)">Medium</text><text class="lanchor" transform="matrix(1 0 0 1 263 1586)">Large</text></g><g id="Guides"><g id="H-reference" style="fill:#27AAE1;stroke:none;" transform="matrix(1 0 0 1 339 696)"><path d="M 54.9316 0 L 57.666 0 L 30.5664 -70.459 L 28.0762 -70.459 L 0.976562 0 L 3.66211 0 L 12.9395 -24.4629 L 45.7031 -24.4629 Z M 29.1992 -67.0898 L 29.4434 -67.0898 L 44.8242 -26.709 L 13.8184 -26.709 Z"/></g><line id="Baseline-S" style="fill:none;stroke:#27AAE1;opacity:1;stroke-width:0.577;" x1="263" x2="3036" y1="696" y2="696"/><line id="Capline-S" style="fill:none;stroke:#27AAE1;opacity:1;stroke-width:0.577;" x1="263" x2="3036" y1="625.541" y2="625.541"/><g id="H-reference" style="fill:#27AAE1;stroke:none;" transform="matrix(1 0 0 1 339 1126)"><path d="M 54.9316 0 L 57.666 0 L 30.5664 -70.459 L 28.0762 -70.459 L 0.976562 0 L 3.66211 0 L 12.9395 -24.4629 L 45.7031 -24.4629 Z M 29.1992 -67.0898 L 29.4434 -67.0898 L 44.8242 -26.709 L 13.8184 -26.709 Z"/></g><line id="Baseline-M" style="fill:none;stroke:#27AAE1;opacity:1;stroke-width:0.577;" x1="263" x2="3036" y1="1126" y2="1126"/><line id="Capline-M" style="fill:none;stroke:#27AAE1;opacity:1;stroke-width:0.577;" x1="263" x2="3036" y1="1055.54" y2="1055.54"/><g id="H-reference" style="fill:#27AAE1;stroke:none;" transform="matrix(1 0 0 1 339 1556)"><path d="M 54.9316 0 L 57.666 0 L 30.5664 -70.459 L 28.0762 -70.459 L 0.976562 0 L 3.66211 0 L 12.9395 -24.4629 L 45.7031 -24.4629 Z M 29.1992 -67.0898 L 29.4434 -67.0898 L 44.8242 -26.709 L 13.8184 -26.709 Z"/></g><line id="Baseline-L" style="fill:none;stroke:#27AAE1;opacity:1;stroke-width:0.577;" x1="263" x2="3036" y1="1556" y2="1556"/><line id="Capline-L" style="fill:none;stroke:#27AAE1;opacity:1;stroke-width:0.577;" x1="263" x2="3036" y1="1485.54" y2="1485.54"/><rect height="119.336" id="left-margin" style="fill:darkred;stroke:none;opacity:0.4;" width="12.4512" x="1394.06" y="1030.79"/><rect height="119.336" id="right-margin" style="fill:darkgreen;stroke:none;opacity:0.4;" width="12.4512" x="1502.5112" y="1030.79"/><rect x="1406.5112" y="1045" width="96" height="96" fill="none" stroke="blue" stroke-dasharray="5"/><rect x="1394.06" y="1030.79" width="120.9024" height="119.336" fill="none" stroke="blue"/></g><g id="Symbols"><g id="Bold-L" transform="matrix(1 0 0 1 2266 1556)"><path d="M117.55125000000001 -55.70874999999998  97.7175 -75.38125  107.23125 -84.89499999999998  117.55125000000001 -74.57499999999999  141.41625 -98.60125  150.93 -89.08749999999998  117.55125000000001 -55.70874999999998 Z M28.21875 28.947500000000016 V-82.96 Q28.21875 -89.32340874999997 32.64909375 -93.80099874999999 Q37.0794375 -98.27874999999997 43.37625 -98.27874999999997 H88.0425 Q88.0425 -93.74956 88.0425 -90.61937499999999 Q88.0425 -87.48918999999998 88.0425 -82.96 H43.37625 Q43.37625 -82.96 43.37625 -82.96 Q43.37625 -82.96 43.37625 -82.96 V5.888750000000016 L77.4 -8.301249999999989 L111.42375 5.888750000000016 V-46.03374999999998 Q115.95294 -46.03374999999998 119.08312500000001 -46.03374999999998 Q122.21331 -46.03374999999998 126.7425 -46.03374999999998 V28.947500000000016 L77.4 7.985000000000014 L28.21875 28.947500000000016 Z M43.37625 -82.96 Q43.37625 -82.96 43.37625 -82.96 Q43.37625 -82.96 43.37625 -82.96 H88.0425 Q88.0425 -82.96 88.0425 -82.96 Q88.0425 -82.96 88.0425 -82.96 Q88.0425 -82.96 88.0425 -82.96 Q88.0425 -82.96 88.0425 -82.96 H77.45369625000001 H43.37625 Z"/></g><g id="Semibold-L" transform="matrix(1 0 0 1 1970.27 1556)"><path d="M116.639865 -55.56846249999998  97.99791375000001 -74.11930749999999  106.319865 -82.51140249999997  116.639865 -72.19140249999998  140.504865 -96.21765249999999  148.89696 -87.82555749999997  116.639865 -55.56846249999998 Z M29.971376250000002 26.283488750000018 V-83.59097125 Q29.971376250000002 -88.87029625 33.73753125 -92.66321874999997 Q37.503525 -96.45597999999998 42.74527875 -96.45597999999998 H88.32291375000001 Q88.32291375000001 -92.68676124999999 88.32291375000001 -90.02355624999998 Q88.32291375000001 -87.36035124999998 88.32291375000001 -83.59097125 H42.74527875 Q42.74527875 -83.59097125 42.74527875 -83.59097125 Q42.74527875 -83.59097125 42.74527875 -83.59097125 V6.870278750000011 L77.4 -7.670278749999987 L112.05472125 6.870278750000011 V-45.893462499999984 Q115.82410125 -45.893462499999984 118.48730624999999 -45.893462499999984 Q121.15051125000001 -45.893462499999984 124.91973 -45.893462499999984 V26.283488750000018 L77.4 6.022103750000014 L29.971376250000002 26.283488750000018 Z M42.74527875 -83.59097125 Q42.74527875 -83.59097125 42.74527875 -83.59097125 Q42.74527875 -83.59097125 42.74527875 -83.59097125 H88.32291375000001 Q88.32291375000001 -83.59097125 88.32291375000001 -83.59097125 Q88.32291375000001 -83.59097125 88.32291375000001 -83.59097125 Q88.32291375000001 -83.59097125 88.32291375000001 -83.59097125 Q88.32291375000001 -83.59097125 88.32291375000001 -83.59097125 H77.43031500000001 H42.74527875 Z"/></g><g id="Medium-L" transform="matrix(1 0 0 1 1674.31 1556)"><path d="M115.95632625 -55.46332749999998  98.20818375 -73.17276999999999  105.63632625000001 -80.72362374999999  115.95632625 -70.40362374999998  139.82132625 -94.42987374999998  147.37201875 -86.87902  115.95632625 -55.46332749999998 Z M31.2860475 24.285278750000018 V-84.06423999999998 Q31.2860475 -88.53038124999998 34.55377875 -91.80956124999997 Q37.82167125 -95.08890249999999 42.27201 -95.08890249999999 H88.53318375 Q88.53318375 -91.88937999999999 88.53318375 -89.57657125 Q88.53318375 -87.26360125 88.53318375 -84.06423999999998 H42.27201 Q42.27201 -84.06423999999998 42.27201 -84.06423999999998 Q42.27201 -84.06423999999998 42.27201 -84.06423999999998 V7.60638500000001 L77.4 -7.197009999999985 L112.52799 7.60638500000001 V-45.78832749999998 Q115.72735125 -45.78832749999998 118.04032125 -45.78832749999998 Q120.35313 -45.78832749999998 123.5526525 -45.78832749999998 V24.285278750000018 L77.4 4.549730000000018 L31.2860475 24.285278750000018 Z M42.27201 -84.06423999999998 Q42.27201 -84.06423999999998 42.27201 -84.06423999999998 Q42.27201 -84.06423999999998 42.27201 -84.06423999999998 H88.53318375 Q88.53318375 -84.06423999999998 88.53318375 -84.06423999999998 Q88.53318375 -84.06423999999998 88.53318375 -84.06423999999998 Q88.53318375 -84.06423999999998 88.53318375 -84.06423999999998 Q88.53318375 -84.06423999999998 88.53318375 -84.06423999999998 H77.4129 H42.27201 Z"/></g><g id="Regular-L" transform="matrix(1 0 0 1 1378.56 1556)"><path d="M115.455 -55.38624999999999  98.3625 -72.47874999999999  105.135 -79.4125  115.455 -69.09249999999999  139.32 -93.11874999999998  146.25375 -86.18499999999997  115.455 -55.38624999999999 Z M32.25 22.820000000000014 V-84.41124999999998 Q32.25 -88.28125 35.1525 -91.18374999999997 Q38.055 -94.08624999999998 41.925000000000004 -94.08624999999998 H88.6875 Q88.6875 -91.3046875 88.6875 -89.24875 Q88.6875 -87.19281249999997 88.6875 -84.41124999999998 H41.925000000000004 Q41.925000000000004 -84.41124999999998 41.925000000000004 -84.41124999999998 Q41.925000000000004 -84.41124999999998 41.925000000000004 -84.41124999999998 V8.146250000000016 L77.4 -6.849999999999987 L112.875 8.146250000000016 V-45.71124999999999 Q115.6565625 -45.71124999999999 117.7125 -45.71124999999999 Q119.7684375 -45.71124999999999 122.55 -45.71124999999999 V22.820000000000014 L77.4 3.470000000000013 L32.25 22.820000000000014 Z"/></g><g id="Light-L" transform="matrix(1 0 0 1 1082.77 1556)"><path d="M113.03608875 -55.20016749999999  97.92825375000001 -70.24592125  103.0261725 -75.50492874999999  113.03608875 -65.49517374999999  136.591005 -89.21117874999999  141.85001250000002 -83.95217124999999  113.03608875 -55.20016749999999 Z M35.47516125 17.982177500000013 V-81.37200999999999 Q35.47516125 -85.11800874999999 38.22963375 -87.89650749999998 Q40.984106249999996 -90.67500625 44.778157500000006 -90.67500625 H87.3849225 Q87.3849225 -88.51361125 87.3849225 -86.9735125 Q87.3849225 -85.43325249999998 87.3849225 -83.35683624999999 H44.778157500000006 Q44.033827499999994 -83.35683624999999 43.41349875 -82.73666874999999 Q42.79333125 -82.11634 42.79333125 -81.37200999999999 V6.781752500000017 L77.4 -7.904413749999982 L112.00666875 6.781752500000017 V-44.656836249999984 Q114.107595 -44.656836249999984 115.66575375000001 -44.656836249999984 Q117.22391250000001 -44.656836249999984 119.32483875000001 -44.656836249999984 V17.982177500000013 L77.4 -0.0033249999999895863 L35.47516125 17.982177500000013 Z M42.79333125 -83.35683624999999 Q42.79333125 -83.35683624999999 43.41349875 -83.35683624999999 Q44.033827499999994 -83.35683624999999 44.778157500000006 -83.35683624999999 H87.3849225 Q87.3849225 -83.35683624999999 87.3849225 -83.35683624999999 Q87.3849225 -83.35683624999999 87.3849225 -83.35683624999999 Q87.3849225 -83.35683624999999 87.3849225 -83.35683624999999 Q87.3849225 -83.35683624999999 87.3849225 -83.35683624999999 H77.4 H42.79333125 Z"/></g><g id="Thin-L" transform="matrix(1 0 0 1 787.282 1556)"><path d="M110.6175 -55.014084999999994  97.49416875 -68.01341499999998  100.91766750000001 -71.59816374999998  110.6175 -61.898331249999984  133.8623325 -85.30441374999998  137.44708125 -81.71966499999999  110.6175 -55.014084999999994 Z M38.7 13.145000000000014 V-78.33341499999999 Q38.7 -81.95525124999999 41.306283750000006 -84.60974874999998 Q43.91272875 -87.26424624999999 47.63067 -87.26424624999999 H86.0826675 Q86.0826675 -85.72301874999998 86.0826675 -84.69859749999999 Q86.0826675 -83.67401499999998 86.0826675 -82.30258374999998 H47.63067 Q46.1423325 -82.30258374999998 44.90183625 -81.06224874999998 Q43.66150125 -79.82191374999998 43.66150125 -78.33341499999999 V5.4174162500000165 L77.4 -8.958666249999986 L111.13849875 5.4174162500000165 V-43.602583749999994 Q112.55878875 -43.602583749999994 113.61933 -43.602583749999994 Q114.67987125 -43.602583749999994 116.10000000000001 -43.602583749999994 V13.145000000000014 L77.4 -3.4761662499999844 L38.7 13.145000000000014 Z M43.66150125 -82.30258374999998 Q43.66150125 -82.30258374999998 44.90183625 -82.30258374999998 Q46.1423325 -82.30258374999998 47.63067 -82.30258374999998 H86.0826675 Q86.0826675 -82.30258374999998 86.0826675 -82.30258374999998 Q86.0826675 -82.30258374999998 86.0826675 -82.30258374999998 Q86.0826675 -82.30258374999998 86.0826675 -82.30258374999998 Q86.0826675 -82.30258374999998 86.0826675 -82.30258374999998 H77.4 H43.66150125 Z"/></g><g id="Ultralight-L" transform="matrix(1 0 0 1 491.205 1556)"><path d="M109.16625 -54.90249999999999  97.23375 -66.67374999999998  99.6525 -69.25374999999998  109.16625 -59.73999999999998  132.225 -82.96  134.805 -80.37999999999998  109.16625 -54.90249999999999 Z M40.635 10.242500000000014 V-76.50999999999999 Q40.635 -80.05749999999999 43.152435000000004 -82.63749999999999 Q45.67003125000001 -85.21749999999999 49.3425 -85.21749999999999 H85.30125 Q85.30125 -84.04843749999999 85.30125 -83.33345499999999 Q85.30125 -82.61847249999998 85.30125 -81.66999999999999 H49.3425 Q47.4075 -81.66999999999999 45.795 -80.05749999999999 Q44.182500000000005 -78.445 44.182500000000005 -76.50999999999999 V4.598750000000017 L77.4 -9.591249999999988 L110.6175 4.598750000000017 V-42.969999999999985 Q111.62934375 -42.969999999999985 112.39125 -42.969999999999985 Q113.15315625000001 -42.969999999999985 114.165 -42.969999999999985 V10.242500000000014 L77.4 -5.559999999999988 L40.635 10.242500000000014 Z"/></g><g id="Bold-M" transform="matrix(1 0 0 1 2281.8 1126)"><path d="M91.25 -50.47999999999999  74.375 -67.35499999999999  84.125 -77.10499999999999  91.25 -69.97999999999999  108.875 -87.72999999999999  118.625 -77.97999999999999  91.25 -50.47999999999999 Z M20.75 16.14500000000001 V-68.72999999999999 Q20.75 -75.35499999999999 25.3125 -79.91749999999999 Q29.875 -84.47999999999999 36.5 -84.47999999999999 H64.375 Q64.375 -79.85499999999999 64.375 -76.60499999999999 Q64.375 -73.35499999999999 64.375 -68.72999999999999 H36.5 Q36.5 -68.72999999999999 36.5 -68.72999999999999 Q36.5 -68.72999999999999 36.5 -68.72999999999999 V-7.72999999999999 L60.0 -17.72999999999999 L83.5 -7.72999999999999 V-40.47999999999999 Q88.125 -40.47999999999999 91.375 -40.47999999999999 Q94.625 -40.47999999999999 99.25 -40.47999999999999 V16.14500000000001 L60.0 -0.6049999999999898 L20.75 16.14500000000001 Z"/></g><g id="Semibold-M" transform="matrix(1 0 0 1 1985.97 1126)"><path d="M90.326125 -50.37124999999999  74.64675 -66.05075  83.201125 -74.6595  90.326125 -67.5345  107.951125 -85.2845  116.559875 -76.67575  90.326125 -50.37124999999999 Z M22.59775 13.37350000000001 V-69.38212499999999 Q22.59775 -74.92025 26.45375 -78.77624999999999 Q30.30975 -82.63224999999998 35.847875 -82.63224999999998 H64.64675 Q64.64675 -78.76812499999998 64.64675 -76.00724999999998 Q64.64675 -73.24624999999999 64.64675 -69.38212499999999 H35.847875 Q35.847875 -69.38212499999999 35.847875 -69.38212499999999 Q35.847875 -69.38212499999999 35.847875 -69.38212499999999 V-6.751749999999991 L60.0 -17.07787499999999 L84.152125 -6.751749999999991 V-40.37124999999999 Q88.01625 -40.37124999999999 90.77725 -40.37124999999999 Q93.538125 -40.37124999999999 97.40225 -40.37124999999999 V13.37350000000001 L60.0 -2.6157499999999914 L22.59775 13.37350000000001 Z M35.847875 -69.38212499999999 Q35.847875 -69.38212499999999 35.847875 -69.38212499999999 Q35.847875 -69.38212499999999 35.847875 -69.38212499999999 H64.64675 Q64.64675 -69.38212499999999 64.64675 -69.38212499999999 Q64.64675 -69.38212499999999 64.64675 -69.38212499999999 Q64.64675 -69.38212499999999 64.64675 -69.38212499999999 Q64.64675 -69.38212499999999 64.64675 -69.38212499999999 H60.0 H35.847875 Z"/></g><g id="Medium-M" transform="matrix(1 0 0 1 1689.91 1126)"><path d="M89.633125 -50.289749999999984  74.8505 -65.072375  82.508125 -72.82512499999999  89.633125 -65.70012499999999  107.258125 -83.45012499999999  115.010875 -75.697375  89.633125 -50.289749999999984 Z M23.983625 11.29450000000001 V-69.87124999999999 Q23.983625 -74.59412499999999 27.30975 -77.92025 Q30.635875 -81.24637499999999 35.35875 -81.24637499999999 H64.8505 Q64.8505 -77.95287499999999 64.8505 -75.55874999999999 Q64.8505 -73.16474999999998 64.8505 -69.87124999999999 H35.35875 Q35.35875 -69.87124999999999 35.35875 -69.87124999999999 Q35.35875 -69.87124999999999 35.35875 -69.87124999999999 V-6.01799999999999 L60.0 -16.58874999999999 L84.64125 -6.01799999999999 V-40.289749999999984 Q87.93475 -40.289749999999984 90.32875 -40.289749999999984 Q92.722875 -40.289749999999984 96.016375 -40.289749999999984 V11.29450000000001 L60.0 -4.123999999999988 L23.983625 11.29450000000001 Z M35.35875 -69.87124999999999 Q35.35875 -69.87124999999999 35.35875 -69.87124999999999 Q35.35875 -69.87124999999999 35.35875 -69.87124999999999 H64.8505 Q64.8505 -69.87124999999999 64.8505 -69.87124999999999 Q64.8505 -69.87124999999999 64.8505 -69.87124999999999 Q64.8505 -69.87124999999999 64.8505 -69.87124999999999 Q64.8505 -69.87124999999999 64.8505 -69.87124999999999 H60.0 H35.35875 Z"/></g><g id="Regular-M" transform="matrix(1 0 0 1 1394.06 1126)"><path d="M89.125 -50.22999999999999  75.0 -64.35499999999999  82.0 -71.47999999999999  89.125 -64.35499999999999  106.75 -82.10499999999999  113.875 -74.97999999999999  89.125 -50.22999999999999 Z M25.0 9.77000000000001 V-70.22999999999999 Q25.0 -74.35499999999999 27.9375 -77.29249999999999 Q30.875 -80.22999999999999 35.0 -80.22999999999999 H65.0 Q65.0 -77.35499999999999 65.0 -75.22999999999999 Q65.0 -73.10499999999999 65.0 -70.22999999999999 H35.0 Q35.0 -70.22999999999999 35.0 -70.22999999999999 Q35.0 -70.22999999999999 35.0 -70.22999999999999 V-5.47999999999999 L60.0 -16.22999999999999 L85.0 -5.47999999999999 V-40.22999999999999 Q87.875 -40.22999999999999 90.0 -40.22999999999999 Q92.125 -40.22999999999999 95.0 -40.22999999999999 V9.77000000000001 L60.0 -5.22999999999999 L25.0 9.77000000000001 Z"/></g><g id="Light-M" transform="matrix(1 0 0 1 1098.18 1126)"><path d="M87.346 -50.22999999999999  75.0 -62.57599999999999  80.221 -67.92199999999998  87.346 -60.79699999999998  104.971 -78.54699999999998  110.317 -73.201  87.346 -50.22999999999999 Z M27.500125 6.019750000000009 V-68.691375 Q27.500125 -72.47987499999999 30.125125 -75.10487499999999 Q32.750125 -77.72987499999999 36.538625 -77.72987499999999 H65.0 Q65.0 -75.576 65.0 -73.97987499999999 Q65.0 -72.38374999999999 65.0 -70.22999999999999 H36.538625 Q35.961625 -70.22999999999999 35.48075 -69.74924999999999 Q35.0 -69.26837499999999 35.0 -68.691375 V-5.47999999999999 L60.0 -16.22999999999999 L85.0 -5.47999999999999 V-40.22999999999999 Q87.15375 -40.22999999999999 88.749875 -40.22999999999999 Q90.346 -40.22999999999999 92.499875 -40.22999999999999 V6.019750000000009 L60.0 -7.922499999999992 L27.500125 6.019750000000009 Z M35.0 -70.22999999999999 Q35.0 -70.22999999999999 35.48075 -70.22999999999999 Q35.961625 -70.22999999999999 36.538625 -70.22999999999999 H65.0 Q65.0 -70.22999999999999 65.0 -70.22999999999999 Q65.0 -70.22999999999999 65.0 -70.22999999999999 Q65.0 -70.22999999999999 65.0 -70.22999999999999 Q65.0 -70.22999999999999 65.0 -70.22999999999999 H60.0 H35.0 Z"/></g><g id="Thin-M" transform="matrix(1 0 0 1 802.565 1126)"><path d="M85.567375 -50.22999999999999  75.0 -60.79737499999999  78.442375 -64.36462499999999  85.567375 -57.23962499999999  103.192375 -74.98962499999999  106.759625 -71.42237499999999  85.567375 -50.22999999999999 Z M30.0 2.2700000000000102 V-67.15312499999999 Q30.0 -70.60499999999999 32.3125 -72.91749999999999 Q34.625 -75.22999999999999 38.076875 -75.22999999999999 H65.0 Q65.0 -73.79737499999999 65.0 -72.72999999999999 Q65.0 -71.66274999999999 65.0 -70.22999999999999 H38.076875 Q36.923125 -70.22999999999999 35.9615 -69.26849999999999 Q35.0 -68.30687499999999 35.0 -67.15312499999999 V-5.47999999999999 L60.0 -16.22999999999999 L85.0 -5.47999999999999 V-40.22999999999999 Q86.43275 -40.22999999999999 87.5 -40.22999999999999 Q88.567375 -40.22999999999999 90.0 -40.22999999999999 V2.2700000000000102 L60.0 -10.61462499999999 L30.0 2.2700000000000102 Z M35.0 -70.22999999999999 Q35.0 -70.22999999999999 35.9615 -70.22999999999999 Q36.923125 -70.22999999999999 38.076875 -70.22999999999999 H65.0 Q65.0 -70.22999999999999 65.0 -70.22999999999999 Q65.0 -70.22999999999999 65.0 -70.22999999999999 Q65.0 -70.22999999999999 65.0 -70.22999999999999 Q65.0 -70.22999999999999 65.0 -70.22999999999999 H60.0 H35.0 Z"/></g><g id="Ultralight-M" transform="matrix(1 0 0 1 506.415 1126)"><path d="M84.5 -50.22999999999999  75.0 -59.72999999999999  77.375 -62.22999999999999  84.5 -55.10499999999999  102.125 -72.85499999999999  104.625 -70.35499999999999  84.5 -50.22999999999999 Z M31.5 0.020000000000010232 V-66.22999999999999 Q31.5 -69.47999999999999 33.625 -71.60499999999999 Q35.75 -73.72999999999999 39.0 -73.72999999999999 H65.0 Q65.0 -72.72999999999999 65.0 -71.97999999999999 Q65.0 -71.22999999999999 65.0 -70.22999999999999 H39.0 Q37.5 -70.22999999999999 36.25 -68.97999999999999 Q35.0 -67.72999999999999 35.0 -66.22999999999999 V-5.47999999999999 L60.0 -16.22999999999999 L85.0 -5.47999999999999 V-40.22999999999999 Q86.0 -40.22999999999999 86.75 -40.22999999999999 Q87.5 -40.22999999999999 88.5 -40.22999999999999 V0.020000000000010232 L60.0 -12.22999999999999 L31.5 0.020000000000010232 Z"/></g><g id="Bold-S" transform="matrix(1 0 0 1 2294.23 696)"><path d="M70.911375 -47.26224999999999  58.681875000000005 -59.491749999999996  65.8815 -66.59275  70.911375 -61.56287499999999  82.64775 -73.29924999999999  89.74875 -66.19824999999999  70.911375 -47.26224999999999 Z M20.316750000000003 2.9378750000000124 V-60.08349999999999 Q20.316750000000003 -65.02579599999999 23.67 -68.42283549999999 Q27.02325 -71.819875 31.954500000000003 -71.72124999999998 H51.580875 Q51.580875 -68.29896249999999 51.580875 -65.90237499999999 Q51.580875 -63.5057875 51.580875 -60.08349999999999 H31.954500000000003 Q31.954500000000003 -60.08349999999999 31.954500000000003 -60.08349999999999 Q31.954500000000003 -60.08349999999999 31.954500000000003 -60.08349999999999 V-14.420124999999988 L47.34 -20.436249999999987 L62.725500000000004 -14.420124999999988 V-40.16124999999999 Q66.17559975 -40.16124999999999 68.592799875 -40.16124999999999 Q71.01 -40.16124999999999 74.36325000000001 -40.16124999999999 V2.9378750000000124 L47.34 -7.910874999999987 L20.316750000000003 2.9378750000000124 Z"/></g><g id="Semibold-S" transform="matrix(1 0 0 1 1998.1 696)"><path d="M70.182437625 -47.17644624999999  58.89628575 -58.46269674999999  65.152562625 -64.66325049999999  70.182437625 -59.6333755  81.918812625 -71.3697505  88.11936637500001 -65.16919675  70.182437625 -47.17644624999999 Z M21.77462475 0.7511615000000127 V-60.59802662499999 Q21.77462475 -64.68277824999998 24.57044625 -67.52238924999999 Q27.366267750000002 -70.36200024999998 31.439973375000005 -70.26337524999998 H51.79528575 Q51.79528575 -67.441418125 51.79528575 -65.43075024999999 Q51.79528575 -63.42008237499999 51.79528575 -60.59802662499999 H31.439973375000005 Q31.439973375000005 -60.59802662499999 31.439973375000005 -60.59802662499999 Q31.439973375000005 -60.59802662499999 31.439973375000005 -60.59802662499999 V-13.648285749999985 L47.34 -19.921723374999992 L63.240026625 -13.648285749999985 V-40.07544624999999 Q66.08989462500001 -40.07544624999999 68.121175125 -40.07544624999999 Q70.152455625 -40.07544624999999 72.90537525 -40.07544624999999 V0.7511615000000127 L47.34 -9.497356749999987 L21.77462475 0.7511615000000127 Z M31.439973375000005 -60.59802662499999 Q31.439973375000005 -60.59802662499999 31.439973375000005 -60.59802662499999 Q31.439973375000005 -60.59802662499999 31.439973375000005 -60.59802662499999 H51.79528575 Q51.79528575 -60.59802662499999 51.79528575 -60.59802662499999 Q51.79528575 -60.59802662499999 51.79528575 -60.59802662499999 Q51.79528575 -60.59802662499999 51.79528575 -60.59802662499999 Q51.79528575 -60.59802662499999 51.79528575 -60.59802662499999 H47.53725 H31.439973375000005 Z"/></g><g id="Medium-S" transform="matrix(1 0 0 1 1701.85 696)"><path d="M69.63566062500001 -47.11214274999998  59.0570445 -57.690758874999986  64.60578562500001 -63.21592862499999  69.63566062500001 -58.186053624999985  81.37203562500001 -69.92242862499998  86.897205375 -64.39725887499999  69.63566062500001 -47.11214274999998 Z M22.868080125000002 -0.8891694999999871 V-60.98394624999999 Q22.868080125000002 -64.42556424999998 25.24583025 -66.84700524999998 Q27.623580375 -69.26854487499999 31.05405375 -69.16991987499999 H51.9560445 Q51.9560445 -66.79818587499999 51.9560445 -65.07688375 Q51.9560445 -63.35568024999999 51.9560445 -60.98394624999999 H31.05405375 Q31.05405375 -60.98394624999999 31.05405375 -60.98394624999999 Q31.05405375 -60.98394624999999 31.05405375 -60.98394624999999 V-13.069356999999986 L47.34 -19.53580374999999 L63.625946250000005 -13.069356999999986 V-40.01114274999998 Q66.025591125 -40.01114274999998 67.76740725 -40.01114274999998 Q69.509223375 -40.01114274999998 71.811919875 -40.01114274999998 V-0.8891694999999871 L47.34 -10.687365999999987 L22.868080125000002 -0.8891694999999871 Z M31.05405375 -60.98394624999999 Q31.05405375 -60.98394624999999 31.05405375 -60.98394624999999 Q31.05405375 -60.98394624999999 31.05405375 -60.98394624999999 H51.9560445 Q51.9560445 -60.98394624999999 51.9560445 -60.98394624999999 Q51.9560445 -60.98394624999999 51.9560445 -60.98394624999999 Q51.9560445 -60.98394624999999 51.9560445 -60.98394624999999 Q51.9560445 -60.98394624999999 51.9560445 -60.98394624999999 H47.53725 H31.05405375 Z"/></g><g id="Regular-S" transform="matrix(1 0 0 1 1405.73 696)"><path d="M69.23475 -47.06499999999999  59.175000000000004 -57.12474999999999  64.204875 -62.154624999999996  69.23475 -57.12474999999999  80.971125 -68.86112499999999  86.001 -63.83124999999998  69.23475 -47.06499999999999 Z M23.67 -2.0919999999999863 V-61.266999999999996 Q23.67 -64.23679599999998 25.741125 -66.3517105 Q27.812250000000002 -68.466625 30.771 -68.368 H52.074000000000005 Q52.074000000000005 -66.32646249999999 52.074000000000005 -64.8175 Q52.074000000000005 -63.3085375 52.074000000000005 -61.266999999999996 H30.771 Q30.771 -61.266999999999996 30.771 -61.266999999999996 Q30.771 -61.266999999999996 30.771 -61.266999999999996 V-12.644874999999988 L47.34 -19.25274999999999 L63.909000000000006 -12.644874999999988 V-39.96399999999999 Q65.97834975 -39.96399999999999 67.507924875 -39.96399999999999 Q69.03750000000001 -39.96399999999999 71.01 -39.96399999999999 V-2.0919999999999863 L47.34 -11.559999999999988 L23.67 -2.0919999999999863 Z"/></g><g id="Light-S" transform="matrix(1 0 0 1 1109.75 696)"><path d="M67.831119 -47.06499999999999  59.175000000000004 -55.72111899999999  62.801244000000004 -59.34736299999999  67.831119 -54.31748799999998  79.56749400000001 -66.05386299999998  83.193738 -62.42761899999999  67.831119 -47.06499999999999 Z M25.642598624999998 -5.0509472499999895 V-60.05302487499999 Q25.642598624999998 -62.75732237499999 27.467161125 -64.62567437499999 Q29.291723625 -66.49402637499999 31.984975125000005 -66.39540137499999 H52.074000000000005 Q52.074000000000005 -64.92283149999999 52.074000000000005 -63.83115137499999 Q52.074000000000005 -62.73947124999998 52.074000000000005 -61.266999999999996 H31.984975125000005 Q31.529722125 -61.266999999999996 31.15031175 -60.88768824999998 Q30.771 -60.50827787499999 30.771 -60.05302487499999 V-12.644874999999988 L47.34 -19.25274999999999 L63.909000000000006 -12.644874999999988 V-39.96399999999999 Q65.409382125 -39.96399999999999 66.52157625000001 -39.96399999999999 Q67.633869 -39.96399999999999 69.037401375 -39.96399999999999 V-5.0509472499999895 L47.34 -13.684382499999991 L25.642598624999998 -5.0509472499999895 Z M30.771 -61.266999999999996 Q30.771 -61.266999999999996 31.15031175 -61.266999999999996 Q31.529722125 -61.266999999999996 31.984975125000005 -61.266999999999996 H52.074000000000005 Q52.074000000000005 -61.266999999999996 52.074000000000005 -61.266999999999996 Q52.074000000000005 -61.266999999999996 52.074000000000005 -61.266999999999996 Q52.074000000000005 -61.266999999999996 52.074000000000005 -61.266999999999996 Q52.074000000000005 -61.266999999999996 52.074000000000005 -61.266999999999996 H47.53725 H30.771 Z"/></g><g id="Thin-S" transform="matrix(1 0 0 1 814.015 696)"><path d="M66.427783875 -47.06499999999999  59.175000000000004 -54.31778387499999  61.397908875 -56.540594124999984  66.427783875 -51.51071912499999  78.164158875 -63.24709412499999  80.38696912500001 -61.024283874999995  66.427783875 -47.06499999999999 Z M27.615000000000002 -8.009499999999989 V-58.83934562499999 Q27.615000000000002 -61.278144624999996 29.193 -62.899835499999995 Q30.771 -64.52162499999999 33.198654375000004 -64.42299999999999 H52.074000000000005 Q52.074000000000005 -63.51949637499999 52.074000000000005 -62.844999999999985 Q52.074000000000005 -62.17060224999999 52.074000000000005 -61.266999999999996 H33.198654375000004 Q32.288345625 -61.266999999999996 31.529623500000003 -60.50837649999998 Q30.771 -59.74965437499999 30.771 -58.83934562499999 V-12.644874999999988 L47.34 -19.25274999999999 L63.909000000000006 -12.644874999999988 V-39.96399999999999 Q64.8404145 -39.96399999999999 65.535424875 -39.96399999999999 Q66.230533875 -39.96399999999999 67.065 -39.96399999999999 V-8.009499999999989 L47.34 -15.808469124999988 L27.615000000000002 -8.009499999999989 Z M30.771 -61.266999999999996 Q30.771 -61.266999999999996 31.529623500000003 -61.266999999999996 Q32.288345625 -61.266999999999996 33.198654375000004 -61.266999999999996 H52.074000000000005 Q52.074000000000005 -61.266999999999996 52.074000000000005 -61.266999999999996 Q52.074000000000005 -61.266999999999996 52.074000000000005 -61.266999999999996 Q52.074000000000005 -61.266999999999996 52.074000000000005 -61.266999999999996 Q52.074000000000005 -61.266999999999996 52.074000000000005 -61.266999999999996 H47.53725 H30.771 Z"/></g><g id="Ultralight-S" transform="matrix(1 0 0 1 517.792 696)"><path d="M65.58562500000001 -47.06499999999999  59.175000000000004 -53.475624999999994  60.55575 -54.856374999999986  65.58562500000001 -49.82649999999999  77.322 -61.56287499999999  78.70275000000001 -60.182124999999985  65.58562500000001 -47.06499999999999 Z M28.7985 -9.784749999999988 V-58.11099999999999 Q28.7985 -60.39042099999999 30.228562500000002 -61.864273 Q31.658625 -63.33812499999999 33.927 -63.23949999999999 H52.074000000000005 Q52.074000000000005 -62.67733749999998 52.074000000000005 -62.253249999999994 Q52.074000000000005 -61.829162499999995 52.074000000000005 -61.266999999999996 H33.927 Q32.743500000000004 -61.266999999999996 31.757250000000003 -60.28074999999998 Q30.771 -59.294499999999985 30.771 -58.11099999999999 V-12.644874999999988 L47.34 -19.25274999999999 L63.909000000000006 -12.644874999999988 V-39.96399999999999 Q64.49897475 -39.96399999999999 64.943674875 -39.96399999999999 Q65.388375 -39.96399999999999 65.8815 -39.96399999999999 V-9.784749999999988 L47.34 -17.082999999999988 L28.7985 -9.784749999999988 Z"/></g></g></svg>